<mxfile host="app.diagrams.net" modified="2023-09-05T16:44:06.565Z" agent="Mozilla/5.0 (Macintosh; Intel Mac OS X 10.15; rv:109.0) Gecko/20100101 Firefox/117.0" version="21.7.2" etag="i8qMyb5f_u9KGP_XnBTB" type="github">
  <diagram name="Page-1" id="DKgdZT66TQ3mib8DXyfy">
    <mxGraphModel>
      <root>
        <mxCell id="0" />
        <mxCell id="1" parent="0" />
      </root>
    </mxGraphModel>
  </diagram>
</mxfile>
